<svg xmlns="http://www.w3.org/2000/svg" viewBox="0 0 100 100" width="300" height="300">
  <circle cx="50" cy="50" r="50" fill="#F7931A"/>
  <path d="M65.27 43.95c.95-6.36-3.89-9.78-10.51-12.06l2.15-8.62-5.25-1.31-2.09 8.39c-1.38-.34-2.8-.67-4.21-.99l2.1-8.43-5.25-1.31-2.15 8.62c-1.14-.26-2.27-.52-3.36-.79l.01-.03-7.24-1.81-1.4 5.61s3.9.89 3.81.95c2.13.53 2.51 1.94 2.45 3.06l-2.45 9.83c.15.04.34.09.55.18-.18-.04-.36-.09-.55-.13l-3.44 13.78c-.26.65-.92 1.62-2.41 1.25.05.08-3.81-.95-3.81-.95l-2.6 6.01 6.83 1.7c1.27.32 2.52.65 3.74.96l-2.17 8.71 5.25 1.31 2.15-8.62c1.43.39 2.83.75 4.19 1.09l-2.14 8.58 5.25 1.31 2.17-8.69c8.97 1.7 15.71.99 18.55-7.13 2.29-6.54-.11-10.31-4.83-12.78 3.43-.79 6.02-3.05 6.71-7.71zM57 56.83c-1.63 6.54-12.65 3.01-16.22 2.12l2.88-11.55c3.57.89 15.04 2.66 13.34 9.43zm1.63-12.93c-1.49 5.95-10.66 2.93-13.63 2.19l2.61-10.48c2.97.74 12.57 2.13 11.02 8.29z" fill="#fff"/>
</svg>
